<svg width="265" height="31" viewBox="0 0 265 31" fill="none" xmlns="http://www.w3.org/2000/svg">
<path d="M10.6752 0H19.2868C20.2392 0 20.8345 0.414338 21.0726 1.24301L29.9223 25.2746C29.9488 25.3499 29.962 25.4755 29.962 25.6513C29.962 25.8019 29.8694 25.9652 29.6842 26.1409C29.5255 26.2916 29.327 26.367 29.0889 26.367H21.7473C20.9536 26.367 20.4377 26.0531 20.1996 25.4253L19.2471 22.9392H10.7149L8.21475 26.367C7.97664 26.9947 9.00844 26.367 8.21475 26.367H0.873065C0.634956 26.367 0.423304 26.2916 0.238109 26.1409C0.0793696 25.9652 0 25.8019 0 25.6513C0 25.4755 0.0132283 25.3499 0.0396848 25.2746L8.88939 1.24301C9.1275 0.414338 9.72277 0 10.6752 0Z" fill="white"/>
<path d="M34.6907 18.3062H38.6592C39.982 18.3062 40.7095 18.1304 40.8418 17.7789L31.5953 1.16768C31.5688 1.09235 31.5556 1.00445 31.5556 0.904009C31.6614 0.301336 31.9921 0 32.5477 0H40.8418C41.3974 0 41.8207 0.301336 42.1117 0.904009L45.8024 8.32442L48.7391 0.904009C49.0037 0.301336 49.4534 0 50.0884 0H58.3031C58.5412 0 58.7529 0.0878902 58.9381 0.263671C59.1233 0.414338 59.2159 0.590118 59.2159 0.79101C59.2159 0.991901 59.2027 1.11746 59.1762 1.16768L51.2789 18.6829C49.9032 21.7465 48.4481 23.793 46.9136 24.8226C45.4056 25.8522 42.9848 26.367 39.6513 26.367H34.6907C34.3997 26.367 34.1483 26.2665 33.9367 26.0656C33.725 25.8647 33.6192 25.6262 33.6192 25.3499V19.3232C33.6192 19.047 33.725 18.8084 33.9367 18.6075C34.1483 18.4066 34.3997 18.3062 34.6907 18.3062Z" fill="white"/>
<path d="M66.4599 0H88.2072C88.4982 0 88.7495 0.100446 88.9612 0.301337C89.1728 0.502229 89.2786 0.740787 89.2786 1.01701V18.0802H90.9851C91.2761 18.0802 91.5274 18.1806 91.7391 18.3815C91.9508 18.5824 92.0566 18.821 92.0566 19.0972V29.983C92.0566 30.2592 91.9508 30.4978 91.7391 30.6987C91.5274 30.8996 91.2761 31 90.9851 31H83.2069C82.9158 31 82.6645 30.8996 82.4529 30.6987C82.2412 30.4978 82.1354 30.2592 82.1354 29.983V26.367H71.3411V29.983C71.3411 30.2592 71.2353 30.4978 71.0237 30.6987C70.812 30.8996 70.5607 31 70.2696 31H62.4914C62.2004 31 61.9491 30.8996 61.7374 30.6987C61.5258 30.5229 61.4199 30.2843 61.4199 29.983V19.0972C61.4199 18.821 61.5258 18.5824 61.7374 18.3815C61.9491 18.1806 62.2004 18.0802 62.4914 18.0802H62.6502C63.4439 18.0802 64.092 17.8291 64.5947 17.3269C65.1238 16.8246 65.3884 16.109 65.3884 15.1798V1.01701C65.3884 0.740787 65.4942 0.502229 65.7059 0.301337C65.9175 0.100446 66.1689 0 66.4599 0ZM79.3575 8.28676H75.3096V15.2175C75.3096 16.6237 75.1905 17.578 74.9524 18.0802H79.3575V8.28676Z" fill="white"/>
<path d="M97.6946 0H104.878C105.169 0 105.42 0.100446 105.632 0.301337C105.843 0.502229 105.949 0.740787 105.949 1.01701V11.3001L112.656 0.866343C113 0.288781 113.542 0 114.283 0H120.553C120.844 0 121.095 0.100446 121.307 0.301337C121.519 0.502229 121.625 0.740787 121.625 1.01701V25.3499C121.625 25.6262 121.519 25.8647 121.307 26.0656C121.095 26.2665 120.844 26.367 120.553 26.367H113.37C113.079 26.367 112.828 26.2665 112.616 26.0656C112.404 25.8647 112.299 25.6262 112.299 25.3499V15.8955L105.592 25.5006C105.195 26.0782 104.653 26.367 103.965 26.367H97.6946C97.4036 26.367 97.1522 26.2665 96.9406 26.0656C96.7289 25.8647 96.6231 25.6262 96.6231 25.3499V1.01701C96.6231 0.740787 96.7289 0.502229 96.9406 0.301337C97.1522 0.100446 97.4036 0 97.6946 0Z" fill="white"/>
<path d="M126.457 0H149.712C150.003 0 150.254 0.100446 150.466 0.301337C150.678 0.502229 150.784 0.740787 150.784 1.01701V7.08141C150.784 7.35764 150.678 7.59619 150.466 7.79708C150.254 7.99798 150.003 8.09842 149.712 8.09842H143.124V25.3499C143.124 25.6262 143.019 25.8647 142.807 26.0656C142.595 26.2665 142.344 26.367 142.053 26.367H134.116C133.825 26.367 133.574 26.2665 133.362 26.0656C133.15 25.8647 133.044 25.6262 133.044 25.3499V8.09842H126.457C126.166 8.09842 125.914 7.99798 125.703 7.79708C125.491 7.59619 125.385 7.35764 125.385 7.08141V1.01701C125.385 0.740787 125.491 0.502229 125.703 0.301337C125.914 0.100446 126.166 0 126.457 0Z" fill="white"/>
<path d="M164.086 19.0219H176.309C176.6 19.0219 176.851 19.1223 177.063 19.3232C177.274 19.5241 177.38 19.7627 177.38 20.0389V25.3499C177.38 25.6262 177.274 25.8647 177.063 26.0656C176.851 26.2665 176.6 26.367 176.309 26.367H155.633C155.342 26.367 155.09 26.2665 154.879 26.0656C154.667 25.8647 154.561 25.6262 154.561 25.3499V1.01701C154.561 0.740787 154.667 0.502229 154.879 0.301337C155.09 0.100446 155.342 0 155.633 0H175.991C176.282 0 176.533 0.100446 176.745 0.301337C176.957 0.502229 177.063 0.740787 177.063 1.01701V6.32807C177.063 6.60429 176.957 6.84285 176.745 7.04374C176.533 7.24464 176.282 7.34508 175.991 7.34508H164.086V9.7181H175.118C175.409 9.7181 175.66 9.81855 175.872 10.0194C176.084 10.2203 176.19 10.4589 176.19 10.7351V15.6318C176.19 15.9081 176.084 16.1466 175.872 16.3475C175.66 16.5484 175.409 16.6488 175.118 16.6488H164.086V19.0219Z" fill="white"/>
<path d="M183.226 0H195.052C198.862 0 201.838 0.778453 203.981 2.33536C206.124 3.89226 207.196 6.18996 207.196 9.22843C207.196 12.2669 206.124 14.5144 203.981 15.9708C201.865 17.4273 198.888 18.1555 195.052 18.1555H192.473V25.3499C192.473 25.6262 192.367 25.8647 192.155 26.0656C191.944 26.2665 191.692 26.367 191.401 26.367H183.226C182.935 26.367 182.684 26.2665 182.472 26.0656C182.26 25.8647 182.155 25.6262 182.155 25.3499V1.01701C182.155 0.740787 182.26 0.502229 182.472 0.301337C182.684 0.100446 182.935 0 183.226 0ZM192.274 7.00608V11.1871H195.052C195.528 11.1871 195.952 11.0239 196.322 10.6974C196.692 10.3459 196.878 9.85622 196.878 9.22843C196.878 8.60065 196.732 8.07331 196.441 7.64642C196.15 7.21952 195.687 7.00608 195.052 7.00608H192.274Z" fill="white"/>
<path d="M211.633 0H218.816C219.107 0 219.359 0.100446 219.57 0.301337C219.782 0.502229 219.888 0.740787 219.888 1.01701V11.3001L226.594 0.866343C226.938 0.288781 227.481 0 228.222 0H234.492C234.783 0 235.034 0.100446 235.246 0.301337C235.457 0.502229 235.563 0.740787 235.563 1.01701V25.3499C235.563 25.6262 235.457 25.8647 235.246 26.0656C235.034 26.2665 234.783 26.367 234.492 26.367H227.309C227.018 26.367 226.766 26.2665 226.555 26.0656C226.343 25.8647 226.237 25.6262 226.237 25.3499V15.8955L219.531 25.5006C219.134 26.0782 218.591 26.367 217.903 26.367H211.633C211.342 26.367 211.091 26.2665 210.879 26.0656C210.668 25.8647 210.562 25.6262 210.562 25.3499V1.01701C210.562 0.740787 210.668 0.502229 210.879 0.301337C211.091 0.100446 211.342 0 211.633 0Z" fill="white"/>
<path d="M244.324 16.5358C241.467 14.8032 240.038 12.4301 240.038 9.41677C240.038 6.37829 241.11 4.05549 243.253 2.44836C245.396 0.81612 248.372 0 252.182 0H263.929C264.22 0 264.471 0.100446 264.683 0.301337C264.894 0.502229 265 0.740787 265 1.01701V25.3499C265 25.6262 264.894 25.8647 264.683 26.0656C264.471 26.2665 264.22 26.367 263.929 26.367H256.15C255.859 26.367 255.608 26.2665 255.396 26.0656C255.185 25.8647 255.079 25.6262 255.079 25.3499V18.1555H253.452L250.039 25.3499C249.721 26.0279 249.153 26.367 248.332 26.367H240.197C239.959 26.367 239.747 26.2916 239.562 26.1409C239.403 25.9652 239.324 25.7894 239.324 25.6136C239.324 25.4378 239.364 25.2746 239.443 25.1239L244.324 16.5358ZM255.079 10.9988V7.00608H252.182C251.573 7.00608 251.11 7.21952 250.793 7.64642C250.502 8.0482 250.356 8.52531 250.356 9.07776C250.356 9.63022 250.515 10.0948 250.833 10.4714C251.15 10.823 251.6 10.9988 252.182 10.9988H255.079Z" fill="white"/>
</svg>
